<?xml version="1.0" encoding="utf-8"?>
<!-- Generator: Adobe Illustrator 21.1.0, SVG Export Plug-In . SVG Version: 6.00 Build 0)  -->
<svg version="1.1" id="header-person" xmlns="http://www.w3.org/2000/svg" xmlns:xlink="http://www.w3.org/1999/xlink" x="0px"
	 y="0px" viewBox="0 0 650 350" style="enable-background:new 0 0 650 350;" xml:space="preserve">
<style type="text/css">
	.st0{fill:#EDF7F7;}
	.st1{fill:#51AFB2;}
	.st2{fill:#EFDBB5;}
	.st3{fill:#E7C6A2;}
	.st4{fill:#441D1A;}
	.st5{fill:#562725;}
	.st6{fill:#353D51;}
	.st7{fill:#898E99;}
	.st8{fill:#351210;}
	.st9{fill:#464655;}
	.st10{fill:#D12C20;}
	.st11{fill:#FB503B;}
	.st12{fill:#E7E7E8;}
	.st13{fill:#DBDBDB;}
	.st14{fill:#CECECF;}
	.st15{fill:#DAEEEF;}
	.st16{fill:#FFFFFF;}
	.st17{fill:#E6E6E6;}
	.st18{fill:#C69C6D;}
	.st19{fill:#A67C52;}
	.st20{fill:#9BBB58;}
	.st21{fill:#F2F2F2;}
	.st22{fill:#8064A1;}
</style>
<g>
	<path class="st0" d="M527.8,350C519,237.4,424.8,148.8,310,148.8S101,237.4,92.2,350H527.8z"/>
	<g>
		<g>
			<path class="st1" d="M376.1,231.4c-2.9-6.1-7-7.2-7-7.2l-40.8-9.4l-18.2,3.6l-0.1,0.1v-0.2l-18.2-3.6l-40.8,9.4
				c0,0-4.1,1.2-7,7.2c-2.1,4.3-13.4,30.2-21.6,53c4.4,0.4,14.3,1.6,28.2,4.6v61H310h0.1h59.4v-61c13.8-3,23.8-4.2,28.2-4.6
				C389.5,261.6,378.2,235.7,376.1,231.4z"/>
			<g>
				<path class="st2" d="M214.8,309.6c-4.1,20.6,5.5,29.2,15.4,40.4h20.3v-61c-13.8-3-23.8-4.2-28.2-4.6
					C219,293.9,216.1,303,214.8,309.6z"/>
				<path class="st2" d="M405.3,309.6c-1.3-6.6-4.2-15.7-7.6-25.3c-4.4,0.4-14.3,1.6-28.2,4.6v61h20.3
					C399.8,338.8,409.4,330.2,405.3,309.6z"/>
			</g>
		</g>
		<path class="st2" d="M291.2,187.3v26c0,10.4,8.5,18.9,18.9,18.9s18.9-8.5,18.9-18.9v-26H291.2z"/>
		<g>
			<path class="st3" d="M310,188.8c-7.6,0-14.4,1.7-18.9,4.4v15.1c4.5,2.7,11.3,4.4,18.9,4.4s14.4-1.7,18.9-4.4v-15.1
				C324.4,190.5,317.6,188.8,310,188.8z"/>
		</g>
		<path class="st4" d="M377.9,96.7c-3.1-17.3-13.8-27.8-13.8-27.8l-12.6,5.5c9.8,10.1,15.9,23.8,15.9,39c0,1.6-0.1,3.2-0.2,4.8l0,0
			v0.3c-0.1,0.9-0.2,1.8-0.3,2.7l-6.3,54.7c24.7-12,29.3-50.5,29.3-50.5C387,122.9,381,113.9,377.9,96.7z"/>
		<path class="st2" d="M367.2,118.2L367.2,118.2c0.1-1.6,0.2-3.2,0.2-4.8c0-30.9-25-55.9-55.9-55.9s-55.9,25-55.9,55.9
			c0,1.6,0.1,3.2,0.2,4.8l0,0v0.3c0.1,0.9,0.2,1.9,0.3,2.8l7,61c1.4,12.4,12.7,22.5,25.1,22.5h23.2h23.3c12.4,0,23.8-10.1,25.1-22.5
			l7-61.1c0.1-0.9,0.2-1.8,0.3-2.7L367.2,118.2z"/>
		<g>
			<path class="st3" d="M363,91.6L363,91.6c-2.1-5.1-5-9.8-8.5-13.9c-24.8-0.4-75.2-0.6-75.2-0.6s-3.4-1-8.2-2.3
				c-5,5.2-9,11.5-11.7,18.3c0.4,0.3,0.8,0.5,1.1,0.8C319.4,134.4,363,91.6,363,91.6z"/>
		</g>
		<path class="st5" d="M261.8,93.4c0,0,2.3,10.4,6.6,14.9c0,0-9.1,5.6-11.9,14.9l6,52.6c0,0-17.2-4.8-31-46.8c0,0,7.5-7.4,8.3-20.6
			c0.7-13.2,7.8-28.1,14.2-31.8c0,0,0.4-14.9,6.9-20.4c6.5-5.5,1.6,6.3,1.6,6.3s12.7-13.9,45.6-17.4c32.8-3.5,61.5,3.2,61.5,3.2
			s4.7,37.1-24.3,49.4C297.2,118.2,261.8,93.4,261.8,93.4z"/>
		<g>
			<circle class="st6" cx="286.8" cy="135.5" r="4.9"/>
			<circle class="st7" cx="288.2" cy="134.4" r="1.8"/>
		</g>
		<g>
			<circle class="st6" cx="335.2" cy="135.5" r="4.9"/>
			<circle class="st7" cx="333.8" cy="134.4" r="1.8"/>
		</g>
		<path class="st3" d="M302.1,183c0,0,16.3-0.4,29.1-8.7C331.2,174.3,321.5,188.7,302.1,183z"/>
		<path class="st8" d="M360.4,86.2c1,1.7,1.9,3.5,2.6,5.4c3.3-5.3,5.1-12,6-16.6c-0.6-0.9-1.2-1.8-1.8-2.5
			C365.8,77.2,363.7,81.9,360.4,86.2z"/>
		<g>
			<g>
				<g>
					<path class="st4" d="M297.4,126.4c-0.2,0.3-0.8,0.3-1.4,0c0,0-0.3-0.2-0.8-0.5c-0.5-0.4-1.2-0.6-2.1-1.1
						c-1.8-0.8-4.2-1.5-6.8-1.5c-2.5,0-5,0.7-6.8,1.4c-0.9,0.4-1.6,0.8-2.1,1.1s-0.7,0.5-0.7,0.5c-0.5,0.3-1,0.4-1.3,0l-2-2.3
						c-0.2-0.3,0.1-1,0.7-1.4c0,0,0.3-0.2,0.9-0.6c0.6-0.4,1.5-0.8,2.6-1.3c2.2-1,5.3-1.9,8.6-1.8c3.3,0,6.4,0.9,8.6,1.9
						c1.1,0.5,2,0.9,2.5,1.3c0.6,0.4,0.9,0.6,0.9,0.6c0.6,0.4,1,1,0.7,1.3L297.4,126.4z"/>
				</g>
			</g>
		</g>
		<g>
			<g>
				<g>
					<path class="st4" d="M346.1,126.4c-0.2,0.3-0.8,0.3-1.4,0c0,0-0.3-0.2-0.8-0.5c-0.5-0.4-1.2-0.6-2.1-1.1
						c-1.8-0.8-4.2-1.5-6.8-1.5c-2.5,0-5,0.7-6.8,1.4c-0.9,0.4-1.6,0.8-2.1,1.1s-0.7,0.5-0.7,0.5c-0.5,0.3-1,0.4-1.3,0l-2-2.3
						c-0.2-0.3,0.1-1,0.7-1.4c0,0,0.3-0.2,0.9-0.6c0.6-0.4,1.5-0.8,2.6-1.3c2.2-1,5.3-1.9,8.6-1.8c3.3,0,6.4,0.9,8.6,1.9
						c1.1,0.5,2,0.9,2.5,1.3c0.6,0.4,0.9,0.6,0.9,0.6c0.6,0.4,1,1,0.7,1.3L346.1,126.4z"/>
				</g>
			</g>
		</g>
		<path class="st9" d="M383.1,119.1c0,0,4.3-34.7-33.6-48.3c-1-0.3-1.2-3.5-0.2-3.2c43,12.3,38,52.5,38,52.5L383.1,119.1z"/>
		<g>
			<path class="st9" d="M373.1,149.7c-0.2,1.7-1.7,3-3.5,2.8l-3-0.3c-1.7-0.2-3-1.7-2.8-3.5l3.3-31.3c0.2-1.7,1.7-3,3.5-2.8l3,0.3
				c1.7,0.2,3,1.7,2.8,3.5L373.1,149.7z"/>
			
				<rect x="363.1" y="131.7" transform="matrix(0.1065 -0.9943 0.9943 0.1065 203.6518 495.3287)" class="st10" width="28.6" height="5.3"/>
			<path class="st11" d="M383,118.4c-0.6-0.3-1.2,0.1-1.3,0.8l-3.3,30.8c-0.1,0.7,0.4,1.2,1.1,1l3.9-0.7c0.7-0.1,1.3-0.8,1.4-1.5
				l2.9-27.3c0.1-0.7-0.4-1.5-1-1.7L383,118.4z"/>
		</g>
		<path class="st9" d="M240,119.1c0,0-4.3-34.7,33.6-48.3c1-0.3,1.2-3.5,0.2-3.2c-43,12.3-38,52.5-38,52.5L240,119.1z"/>
		<g>
			<path class="st9" d="M250,149.7c0.2,1.7,1.7,3,3.5,2.8l3-0.3c1.7-0.2,3-1.7,2.8-3.5l-3.3-31.3c-0.2-1.7-1.7-3-3.5-2.8l-3,0.3
				c-1.7,0.2-3,1.7-2.8,3.5L250,149.7z"/>
			
				<rect x="243" y="120" transform="matrix(0.9943 -0.1065 0.1065 0.9943 -12.9061 26.9292)" class="st10" width="5.3" height="28.6"/>
			<path class="st11" d="M240.1,118.4c0.6-0.3,1.2,0.1,1.3,0.8l3.3,30.8c0.1,0.7-0.4,1.2-1.1,1l-3.9-0.7c-0.7-0.1-1.3-0.8-1.4-1.5
				l-2.9-27.3c-0.1-0.7,0.4-1.5,1-1.7L240.1,118.4z"/>
		</g>
		<path class="st11" d="M354.6,67.8c-11.7-4.6-26.2-6.9-43-6.9l0,0c-16.9,0-31.3,2.3-43,6.9c-1.6,0.6-2.3,2.4-1.7,3.9
			c0.5,1.2,1.6,1.9,2.8,1.9c0.4,0,0.7-0.1,1.1-0.2c11-4.3,24.7-6.5,40.8-6.5l0,0c16.1,0,29.8,2.2,40.8,6.5c0.4,0.1,0.7,0.2,1.1,0.2
			c1.2,0,2.4-0.7,2.8-1.9C356.9,70.2,356.2,68.4,354.6,67.8z"/>
		<path class="st3" d="M311.5,162.6c-3.5,0-6.7-0.5-9.4-1.3c1,2.9,4.8,5.1,9.4,5.1s8.4-2.2,9.4-5.1
			C318.2,162.1,315,162.6,311.5,162.6z"/>
	</g>
	<path class="st0" d="M447.3,23.1c1.4-2.2,4.4-2.8,6.6-1.4c0.1,0,0.1,0.1,0.2,0.2c0-0.1,0.1-0.1,0.1-0.2c1.4-2.2,4.4-2.8,6.6-1.4
		c0.2,0.1,0.3,0.2,0.4,0.3c2.2-1.5,5.2-1.6,7.7-0.1c3.2,2.1,4.1,6.4,2.1,9.6c-0.1,0.2-0.2,0.4-0.4,0.5c2.4,1.7,3,5,1.4,7.5
		c-1.7,2.6-5.1,3.3-7.6,1.6c-0.1-0.1-0.2-0.1-0.2-0.2l0,0L449,29.7c0,0-0.1,0-0.1-0.1l-0.1-0.1l-0.1-0.1l0,0
		C446.5,28,446,25.2,447.3,23.1z"/>
	<g>
		<path class="st0" d="M69.9,274.5l-19.6,11.2c-0.3,0.2-0.4,0.6-0.3,0.9l8.3,14.5c0.2,0.3,0.6,0.4,0.9,0.3l19.6-11.2
			c0.3-0.2,0.4-0.6,0.3-0.9l-8.3-14.5C70.6,274.4,70.2,274.3,69.9,274.5z M68,276.9c-0.1-0.2-0.1-0.5,0.2-0.7
			c0.2-0.1,0.6-0.1,0.7,0.2c0.1,0.2,0.1,0.6-0.2,0.7C68.4,277.2,68.1,277.1,68,276.9z M57.8,282.7c-0.1-0.2-0.1-0.6,0.2-0.7l8.2-4.7
			c0.2-0.1,0.5-0.1,0.7,0.2c0.1,0.2,0.1,0.5-0.2,0.7l-8.2,4.7C58.2,283.1,57.9,283,57.8,282.7z M53.3,285.3
			c-0.1-0.2-0.1-0.5,0.2-0.7c0.2-0.1,0.5-0.1,0.7,0.2c0.1,0.2,0.1,0.6-0.2,0.7C53.8,285.6,53.5,285.5,53.3,285.3z M52.2,285.9
			c-0.1-0.2-0.1-0.5,0.2-0.7c0.2-0.1,0.5-0.1,0.7,0.2c0.1,0.2,0.1,0.5-0.2,0.7C52.7,286.2,52.4,286.1,52.2,285.9z M51.2,286.5
			c-0.1-0.2-0.1-0.5,0.2-0.7c0.2-0.1,0.6-0.1,0.7,0.2c0.1,0.2,0.1,0.6-0.2,0.7C51.6,286.8,51.3,286.8,51.2,286.5z M71,277.2
			l6.8,11.8c0.1,0.2,0,0.5-0.2,0.7l-18.1,10.4c-0.2,0.1-0.5,0-0.7-0.2L52,288.1c-0.1-0.2-0.1-0.5,0.2-0.7L70.3,277
			C70.6,276.9,70.9,277,71,277.2z M70.2,275.7c0.1,0.2,0.1,0.5-0.2,0.7c-0.2,0.1-0.5,0.1-0.7-0.2c-0.1-0.2-0.1-0.5,0.2-0.7
			C69.7,275.3,70,275.4,70.2,275.7z"/>
		<path class="st0" d="M65.6,283.5c-0.1,0.2,0,0.4,0.2,0.5l4.2,1.6l-0.7,4.4c0,0.2,0.1,0.4,0.3,0.5c0.1,0,0.2,0,0.3,0
			c0.1-0.1,0.2-0.2,0.2-0.3l0.8-4.7c0-0.2-0.1-0.4-0.3-0.4l-4.5-1.7C65.9,283.2,65.7,283.3,65.6,283.5z"/>
		<path class="st0" d="M60.6,287.1c0-0.2-0.1-0.4-0.3-0.5c-0.2,0-0.4,0.1-0.5,0.3l-0.8,4.7c0,0.2,0.1,0.4,0.3,0.4l4.5,1.7
			c0.1,0,0.2,0,0.3,0c0.1,0,0.1-0.1,0.2-0.2c0.1-0.2,0-0.4-0.2-0.5l-4.2-1.6L60.6,287.1z"/>
		<path class="st0" d="M64.1,283.5c-0.2,0-0.4,0.2-0.3,0.5l1.6,9.6c0,0.2,0.2,0.4,0.5,0.3H66c0.1-0.1,0.2-0.2,0.2-0.4l-1.6-9.6
			C64.5,283.6,64.3,283.4,64.1,283.5z"/>
	</g>
	<g>
		<path class="st12" d="M390.8,342c0,2.4-1.9,4.3-4.3,4.3H233.6c-2.4,0-4.3-1.9-4.3-4.3v-99.4c0-2.4,1.9-4.3,4.3-4.3h152.8
			c2.4,0,4.3,1.9,4.3,4.3L390.8,342L390.8,342z"/>
		<path class="st13" d="M382.9,341.1H237.2c-1.5,0-2.7-1.2-2.7-2.7v-92.2c0-1.5,1.2-2.7,2.7-2.7h145.6c1.5,0,2.7,1.2,2.7,2.7v92.2
			C385.5,339.9,384.3,341.1,382.9,341.1z M237.2,244.5c-0.9,0-1.6,0.7-1.6,1.6v92.2c0,0.9,0.7,1.6,1.6,1.6h145.6
			c0.9,0,1.6-0.7,1.6-1.6v-92.2c0-0.9-0.7-1.6-1.6-1.6L237.2,244.5L237.2,244.5z"/>
		<path class="st14" d="M386.4,346.3H233.6c-0.9,0-1.8-0.3-2.5-0.8v0.2c0,2.3,1.9,4.2,4.2,4.2h149.4c2.3,0,4.2-1.9,4.2-4.2v-0.2
			C388.2,346,387.4,346.3,386.4,346.3z"/>
	</g>
	<g>
		<path class="st15" d="M474.4,150l-9.5-1.3l-0.5-1.6l7.3-6.2l0.5,1.8l-5.2,4.5l6.7,1L474.4,150z"/>
		<path class="st15" d="M477.5,136.6l1.5-0.4l-1.2,15.8l-1.5,0.4L477.5,136.6z"/>
		<path class="st15" d="M488.1,141.1l-6.8-1.1l-0.5-1.8l9.5,1.3l0.5,1.6l-7.3,6.1l-0.5-1.8L488.1,141.1z"/>
	</g>
	<path class="st0" d="M120.2,60.3c-1.1-2.4-4-3.4-6.3-2.3c-0.1,0-0.1,0.1-0.2,0.1c0-0.1,0-0.1-0.1-0.2c-1.1-2.4-4-3.4-6.3-2.3
		c-0.2,0.1-0.3,0.2-0.5,0.3c-2-1.8-5-2.3-7.6-1.1c-3.5,1.6-4.9,5.8-3.3,9.2c0.1,0.2,0.2,0.4,0.3,0.6c-2.6,1.4-3.7,4.6-2.4,7.2
		c1.3,2.8,4.6,3.9,7.4,2.6c0.1,0,0.2-0.1,0.3-0.1l0,0l16.4-7.7c0,0,0.1,0,0.1-0.1l0.1-0.1l0.2-0.1l0,0
		C120.3,65.3,121.2,62.6,120.2,60.3z"/>
	<path class="st15" d="M168,137.1c-3.6-3.6-9.4-3.6-13,0s-3.6,9.4,0,13c3.3,3.3,8.5,3.6,12.1,0.7l5.3,5.3c0.4,0.4,1.2,0.4,1.6,0
		c0.4-0.4,0.4-1.2,0-1.6l-5.3-5.2C171.5,145.7,171.3,140.5,168,137.1z M166.5,148.6c-2.8,2.7-7.2,2.7-10,0c-2.7-2.7-2.7-7.2,0-10
		c2.7-2.7,7.2-2.7,10,0C169.2,141.4,169.2,145.9,166.5,148.6z"/>
	<path class="st0" d="M549.1,129.9l-3.6,3.6c-0.3,0.3-0.3,0.8,0,1.1s0.8,0.3,1.1,0l3.6-3.6c2.4,1.9,5.9,1.7,8.2-0.5
		c2.4-2.4,2.4-6.3,0-8.8s-6.3-2.4-8.8,0C547.3,123.9,547.2,127.4,549.1,129.9z M550.6,122.7c1.9-1.9,4.9-1.9,6.7,0
		c1.9,1.9,1.9,4.9,0,6.7c-1.9,1.9-4.9,1.9-6.7,0C548.7,127.6,548.7,124.5,550.6,122.7z"/>
	<g>
		<path class="st15" d="M559.5,202.5l-1.2,1.8l1.3,1.3l1.8-1.2c0.6,0.4,1.3,0.7,2,0.8l0.4,2.1h1.9l0.4-2.1c0.7-0.2,1.4-0.4,2-0.8
			l1.8,1.2l1.3-1.3l-1.2-1.8c0.4-0.6,0.7-1.3,0.8-2l2.1-0.4v-1.8l-2.1-0.4c-0.2-0.7-0.4-1.4-0.8-2l1.2-1.8l-1.3-1.3l-1.8,1.2
			c-0.6-0.4-1.3-0.7-2-0.8l-0.4-2.1h-2l-0.4,2.1c-0.7,0.2-1.4,0.4-2,0.8l-1.8-1.2l-1.3,1.3l1.2,1.8c-0.4,0.6-0.7,1.3-0.8,2l-2.1,0.4
			v1.9l2.1,0.4C558.8,201.3,559.1,201.9,559.5,202.5z M564.7,196.5c1.5,0,2.8,1.2,2.8,2.8c0,1.5-1.2,2.8-2.8,2.8
			c-1.5,0-2.8-1.2-2.8-2.8S563.1,196.5,564.7,196.5z"/>
		<path class="st15" d="M575.6,212.4c0-0.6,0-1.1-0.2-1.6l1.3-1.1l-0.7-1.3l-1.6,0.5c-0.4-0.4-0.8-0.8-1.3-1l0.2-1.6l-1.4-0.4
			l-0.7,1.5c-0.6,0-1.1,0-1.6,0.2l-1.1-1.3l-1.3,0.7l0.5,1.6c-0.4,0.4-0.8,0.8-1,1.3l-1.6-0.2l-0.4,1.4l1.5,0.7c0,0.6,0,1.1,0.2,1.6
			l-1.3,1.1l0.7,1.3l1.6-0.5c0.4,0.4,0.8,0.8,1.3,1l-0.2,1.6l1.4,0.4l0.7-1.5c0.6,0,1.1,0,1.6-0.2l1,1.3l1.3-0.7l-0.5-1.6
			c0.4-0.4,0.8-0.8,1-1.3l1.6,0.2l0.4-1.4L575.6,212.4z M572.9,212.7c-0.3,1.1-1.5,1.8-2.6,1.5s-1.8-1.5-1.5-2.6s1.5-1.8,2.6-1.5
			C572.6,210.4,573.2,211.5,572.9,212.7z"/>
		<path class="st15" d="M562.9,209.8l0.9-0.6l-0.4-0.9l-1.1,0.2c-0.2-0.3-0.5-0.6-0.8-0.8l0.2-1.1l-0.9-0.4l-0.6,0.9
			c-0.4-0.1-0.8-0.1-1.1,0l-0.6-0.9l-0.9,0.4l0.2,1.1c-0.3,0.2-0.6,0.5-0.8,0.8l-1.1-0.2l-0.4,0.9l0.9,0.6c-0.1,0.4-0.1,0.8,0,1.1
			l-0.9,0.6l0.4,0.9l1.1-0.2c0.2,0.3,0.5,0.6,0.8,0.8l-0.2,1.1l0.9,0.4l0.6-0.9c0.4,0.1,0.8,0.1,1.1,0l0.6,0.9l0.9-0.4l-0.2-1.1
			c0.3-0.2,0.6-0.5,0.8-0.8l1.1,0.2l0.4-0.9l-0.9-0.6C563,210.5,563,210.1,562.9,209.8z M561.1,210.9c-0.3,0.7-1.1,1.1-1.9,0.8
			c-0.7-0.3-1.1-1.1-0.8-1.9c0.3-0.7,1.1-1.1,1.9-0.8C561,209.3,561.4,210.1,561.1,210.9z"/>
	</g>
	<g>
		<path class="st15" d="M236,43v1.6l1.4,0.3l0.6-1.5c0.5,0,1-0.1,1.5-0.3l1.1,1.1l1.2-0.8l-0.6-1.4c0.4-0.4,0.7-0.8,0.9-1.3h1.6
			l0.3-1.4l-1.5-0.6c0-0.5-0.1-1-0.3-1.5l1.1-1.1l-0.8-1.2l-1.4,0.6c-0.4-0.4-0.8-0.7-1.3-0.9V33l-1.4-0.3l-0.6,1.5
			c-0.5,0-1,0.1-1.5,0.3l-1.1-1.1l-1.2,0.8l0.6,1.4c-0.4,0.4-0.7,0.8-0.9,1.3h-1.6l-0.3,1.4l1.5,0.6c0,0.5,0.1,1,0.3,1.5l-1.1,1.1
			l0.8,1.2l1.5-0.6C235.1,42.5,235.5,42.8,236,43z M236.7,37.2c0.9-0.6,2.2-0.4,2.8,0.6s0.3,2.2-0.6,2.8c-0.9,0.6-2.2,0.3-2.8-0.6
			C235.5,39.1,235.8,37.8,236.7,37.2z"/>
		<path class="st15" d="M249.9,42.6c-0.2-0.4-0.5-0.7-0.8-0.9l0.4-1.2l-1-0.5l-0.7,1c-0.4-0.1-0.8-0.1-1.2-0.1l-0.6-1.1l-1,0.3
			l0.2,1.2c-0.4,0.2-0.7,0.5-0.9,0.8l-1.2-0.4l-0.5,1l1,0.7c-0.1,0.4-0.1,0.8-0.1,1.2l-1.1,0.6l0.3,1l1.2-0.2
			c0.2,0.4,0.5,0.7,0.8,0.9l-0.4,1.2l1,0.5l0.7-1c0.4,0.1,0.8,0.1,1.2,0.1l0.6,1.1l1-0.3l-0.2-1.2c0.4-0.2,0.7-0.5,0.9-0.8l1.2,0.4
			l0.5-1l-1-0.7c0.1-0.4,0.1-0.8,0.1-1.2l1.1-0.6l-0.3-1L249.9,42.6z M248.4,43.9c0.3,0.8-0.2,1.7-1,2s-1.7-0.2-2-1s0.2-1.7,1-2
			C247.2,42.6,248.1,43,248.4,43.9z"/>
		<path class="st15" d="M241,46.1l0.3-0.8l-0.6-0.4l-0.6,0.6c-0.3-0.1-0.5-0.2-0.8-0.2l-0.3-0.8l-0.7,0.1v0.8
			c-0.3,0.1-0.5,0.3-0.7,0.5l-0.8-0.3l-0.4,0.6l0.6,0.6c-0.1,0.3-0.2,0.5-0.2,0.8l-0.8,0.3l0.1,0.7h0.8c0.1,0.3,0.3,0.5,0.5,0.7
			l-0.3,0.8l0.6,0.4l0.6-0.6c0.3,0.1,0.5,0.2,0.8,0.2l0.3,0.8l0.7-0.1V50c0.3-0.1,0.5-0.3,0.7-0.5l0.8,0.3l0.4-0.6l-0.6-0.6
			c0.1-0.3,0.2-0.5,0.2-0.8l0.8-0.3l-0.1-0.7h-0.8C241.3,46.5,241.2,46.3,241,46.1z M240.3,47.5c0.1,0.6-0.3,1.1-0.8,1.3
			c-0.6,0.1-1.1-0.3-1.3-0.8c-0.1-0.6,0.3-1.1,0.8-1.3C239.7,46.6,240.2,47,240.3,47.5z"/>
	</g>
	<path class="st15" d="M572.4,275.1l-8.9-9.1c-0.5-0.5-1.3-0.5-1.9,0l-16,15.7c-0.5,0.5-0.5,1.3,0,1.9l8.9,9.1
		c0.5,0.5,1.3,0.5,1.9,0l16-15.7C572.9,276.5,572.9,275.7,572.4,275.1z M551.2,287c-0.3-0.3-0.3-0.9,0-1.2c0.3-0.3,0.9-0.3,1.2,0
		s0.3,0.9,0,1.2C552,287.4,551.5,287.4,551.2,287z M557.5,289.5l-8.7-8.9l11.9-11.7l8.7,8.9L557.5,289.5z"/>
	<path class="st15" d="M78.6,192.4l-10,16.9c-0.3,0.4-0.1,1,0.3,1.2l11.6,6.8c0.4,0.3,1,0.1,1.2-0.3l3.8-6.4l1.8,1l-0.7,1.2l1.2,0.7
		l3.9-6.5l-1.2-0.7l-0.7,1.2l-1.8-1l3.8-6.4c0.3-0.4,0.1-1-0.3-1.2l-11.6-6.8C79.4,191.9,78.9,192,78.6,192.4z M89.4,199.1
		l-9.7,16.3l-9-5.3l9.7-16.3L89.4,199.1z"/>
	<path class="st16" d="M483,312c-0.2,0-0.3,0-0.5,0v-5c0-1.6-1.3-2.9-2.9-2.9h-32.4c-1.6,0-2.9,1.3-2.9,2.9v40
		c0,1.6,1.3,2.9,2.9,2.9h32.5c1.6,0,2.9-1.3,2.9-2.9v-9.4c0.2,0,0.3,0,0.5,0c7.1,0,12.8-5.7,12.8-12.8
		C495.9,317.8,490.1,312,483,312z M483,332.9c-0.2,0-0.3,0-0.5,0v-16c0.2,0,0.3,0,0.5,0c4.4,0,8,3.6,8,8
		C491.1,329.3,487.5,332.9,483,332.9z"/>
	<g>
		<path class="st17" d="M482.5,347.1v-9.4c0.2,0,0.3,0,0.5,0c7.1,0,12.8-5.7,12.8-12.8c0-7.1-5.7-12.8-12.8-12.8c-0.2,0-0.3,0-0.5,0
			v-5c0-1.6-1.3-2.9-2.9-2.9h-16.2V350h16.3C481.2,350,482.5,348.7,482.5,347.1z M482.5,316.8c0.2,0,0.3,0,0.5,0c4.4,0,8,3.6,8,8
			s-3.6,8-8,8c-0.2,0-0.3,0-0.5,0V316.8z"/>
	</g>
	<path class="st18" d="M447.3,304.2c-1.6,0-2.9,1.3-2.9,2.9v5.1c0,1.6,1.3,2.9,2.9,2.9h0.6c1.6,0,2.9,1.3,2.9,2.9v1.6
		c0,1.6,1.3,2.9,2.9,2.9h0.6c1.6,0,2.9-1.3,2.9-2.9v-5.3c0-1.6,1.3-2.9,2.9-2.9h0.6c1.6,0,2.9,0.8,2.9,1.8s1.3,1.8,2.9,1.8h0.6
		c1.6,0,2.9-1.3,2.9-2.9v-0.3c0-1.6,1.3-2.9,2.9-2.9h0.6c1.6,0,2.9,1.3,2.9,2.9v3.7c0,1.6,1.3,2.9,2.9,2.9h0.6
		c1.6,0,2.9-1.3,2.9-2.9V307c0-1.6-1.3-2.9-2.9-2.9L447.3,304.2L447.3,304.2z"/>
	<path class="st19" d="M466.4,315h0.6c1.6,0,2.9-1.3,2.9-2.9v-0.3c0-1.6,1.3-2.9,2.9-2.9h0.6c1.6,0,2.9,1.3,2.9,2.9v3.7
		c0,1.6,1.3,2.9,2.9,2.9h0.6c1.6,0,2.9-1.3,2.9-2.9V307c0-1.6-1.3-2.9-2.9-2.9h-16.2v9C463.5,314.2,464.8,315,466.4,315z"/>
	<g>
		<path class="st20" d="M123.9,332.5h61c0.7,0,1.3,0.6,1.3,1.3s-0.6,1.3-1.3,1.3h-61c-3.4,0-6.1,2.8-6.1,6.1c0,3.4,2.8,6.1,6.1,6.1
			h61c0.7,0,1.3,0.6,1.3,1.3c0,0.7-0.6,1.3-1.3,1.3h-61c-4.8,0-8.7-3.9-8.7-8.7C115.2,336.4,119.1,332.5,123.9,332.5z"/>
		<path class="st16" d="M117.8,341.2c0-3.4,2.8-6.1,6.1-6.1h60v12.3h-60C120.5,347.4,117.8,344.6,117.8,341.2z"/>
		<rect x="130.2" y="337.2" class="st21" width="53.7" height="0.6"/>
		<rect x="137.6" y="345.1" class="st21" width="40.6" height="0.6"/>
		<rect x="147" y="342.2" class="st21" width="37" height="0.6"/>
		<rect x="124.6" y="339.6" class="st21" width="48.9" height="0.6"/>
		<polygon class="st11" points="132.5,349.1 128.9,347.4 125.3,349.1 125.3,339.6 132.5,339.6 		"/>
	</g>
	<g>
		<path class="st22" d="M128.4,315h61c0.7,0,1.3,0.6,1.3,1.3c0,0.7-0.6,1.3-1.3,1.3h-61c-3.4,0-6.1,2.8-6.1,6.1
			c0,3.4,2.8,6.1,6.1,6.1h61c0.7,0,1.3,0.6,1.3,1.3c0,0.7-0.6,1.3-1.3,1.3h-61c-4.8,0-8.7-3.9-8.7-8.7
			C119.6,318.9,123.5,315,128.4,315z"/>
		<path class="st16" d="M122.2,323.8c0-3.4,2.8-6.1,6.1-6.1h60V330h-60C125,329.9,122.2,327.1,122.2,323.8z"/>
		<rect x="134.7" y="319.8" class="st21" width="53.7" height="0.6"/>
		<rect x="142.1" y="327.7" class="st21" width="40.6" height="0.6"/>
		<rect x="151.4" y="324.8" class="st21" width="37" height="0.6"/>
		<rect x="129.1" y="322.2" class="st21" width="48.9" height="0.6"/>
		<polygon class="st11" points="137,331.9 133.4,330.2 129.8,331.9 129.8,324.8 137,324.8 		"/>
	</g>
	<g>
		<path class="st15" d="M615,235.5c-3.4-3.3-8.8-3.2-12.1,0.2c-1.3,1.4-2.1,3.1-2.3,5c0,0,0,0,0,0.1v0.1c0,0.4-0.1,0.8,0,1.2
			c-0.1,0.9-0.3,2.1-0.8,2.9l-1.5,1.6l-3.5,3.6c-0.2,0.2-0.2,0.5,0,0.7l5.6,5.4c0.2,0.2,0.5,0.2,0.7,0l3.5-3.6l1.5-1.6
			c0.8-0.6,2-0.8,2.9-0.9c0.4,0,0.8,0,1.2-0.1l0,0h0.1c1.9-0.3,3.5-1.2,4.8-2.5C618.5,244.2,618.4,238.7,615,235.5z M602.4,253.5
			l-4.9-4.7l1-1.1l4.9,4.7L602.4,253.5z M595.7,250.5l1-1.1l4.9,4.7l-1,1.1L595.7,250.5z M610.1,249.1L610.1,249.1
			c-0.4,0.1-0.8,0.1-1.2,0.1c0,0,0,0-0.1,0c-1,0.1-2.5,0.4-3.5,1.1c0,0,0,0-0.1,0.1l-1.2,1.3l-4.9-4.7l1.2-1.3c0,0,0,0,0-0.1
			c0.7-1,0.9-2.4,1-3.5c0,0,0,0,0-0.1c0-0.4,0-0.8,0-1.2l0,0l0,0c0.2-1.7,0.9-3.2,2.1-4.5c2.9-3,7.7-3.1,10.7-0.2s3.1,7.7,0.2,10.7
			C613.3,248.1,611.8,248.9,610.1,249.1z"/>
		<path class="st15" d="M612.6,243.2l-2.7-1.4l3.2-1.7c0.2-0.1,0.3-0.3,0.3-0.4c0-0.2-0.1-0.4-0.3-0.4l-3.4-1.9
			c-0.2-0.1-0.4-0.1-0.6,0l-4.6,3.6c-0.1,0.1-0.2,0.2-0.2,0.4c0,0.2,0.1,0.3,0.2,0.4l1.8,1.4l-2.6,2.5c-0.2,0.2-0.2,0.4-0.1,0.6
			l0.1,0.1c0.1,0.1,0.3,0.2,0.5,0.1l8.1-2.3c0.2-0.1,0.3-0.2,0.4-0.4C612.9,243.5,612.8,243.3,612.6,243.2z M606.1,244.9l1.5-1.5
			c0.1-0.1,0.2-0.2,0.2-0.4c0-0.1-0.1-0.2-0.2-0.3l0,0l-1.8-1.3l3.8-3l2.3,1.3l-3.2,1.6c-0.2,0.1-0.3,0.3-0.3,0.4s0.1,0.4,0.3,0.4
			l2.4,1.3L606.1,244.9z"/>
		<path class="st15" d="M620.4,251.3l-2.7-2.6c-0.2-0.2-0.6-0.2-0.8,0s-0.2,0.6,0,0.8l2.7,2.6c0.2,0.2,0.6,0.2,0.8,0
			C620.7,252,620.6,251.6,620.4,251.3z"/>
		<path class="st15" d="M601.9,233.5l-2.7-2.6c-0.2-0.2-0.6-0.2-0.8,0s-0.2,0.6,0,0.8l2.7,2.6c0.2,0.2,0.6,0.2,0.8,0
			C602.2,234.2,602.2,233.8,601.9,233.5z"/>
		<path class="st15" d="M616.6,234.1c0.2,0.2,0.6,0.2,0.8,0l2.6-2.7c0.2-0.2,0.2-0.6,0-0.8c-0.2-0.2-0.6-0.2-0.8,0l-2.6,2.7
			C616.3,233.5,616.3,233.9,616.6,234.1z"/>
		<path class="st15" d="M608.6,230.6c0,0.2,0.1,0.3,0.2,0.4c0.1,0.1,0.3,0.2,0.4,0.2c0.3,0,0.6-0.3,0.6-0.6l-0.1-3.8
			c0-0.3-0.3-0.6-0.6-0.6s-0.6,0.3-0.6,0.6L608.6,230.6z"/>
		<path class="st15" d="M619.9,241.8c0.1,0.1,0.3,0.2,0.4,0.2l3.8-0.1c0.3,0,0.6-0.3,0.6-0.6c0-0.3-0.3-0.6-0.6-0.6l-3.8,0.1
			c-0.3,0-0.6,0.3-0.6,0.6C619.7,241.5,619.8,241.7,619.9,241.8z"/>
	</g>
	<g>
		<path class="st15" d="M387.9,23.1c-3.1-2.4-7.6-1.8-10,1.4c-0.9,1.2-1.4,2.7-1.4,4.3l0,0c0,0,0,0,0,0.1c0,0.3,0,0.7,0.1,1
			c0,0.8,0,1.8-0.4,2.5l-1.1,1.5l-2.5,3.3c-0.1,0.2-0.1,0.4,0.1,0.6l5.2,3.9c0.2,0.1,0.4,0.1,0.6-0.1l2.5-3.3l1.1-1.5
			c0.6-0.5,1.6-0.9,2.3-1c0.4,0,0.7-0.1,1-0.2l0,0h0.1c1.5-0.4,2.8-1.3,3.8-2.5C391.7,30,391.1,25.5,387.9,23.1z M379.3,39.2
			l-4.5-3.4l0.8-1l4.5,3.4L379.3,39.2z M373.5,37.4l0.8-1l4.5,3.4l-0.8,1L373.5,37.4z M385.3,34.9C385.2,34.9,385.2,34.9,385.3,34.9
			c-0.4,0.1-0.7,0.1-1,0.2l0,0c-0.9,0.2-2,0.6-2.7,1.3l0,0l-0.9,1.2l-4.5-3.4l0.9-1.2c0,0,0,0,0-0.1c0.5-0.9,0.5-2.1,0.5-3l0,0
			c-0.1-0.3-0.1-0.6-0.1-1l0,0l0,0c0-1.4,0.4-2.8,1.3-3.9c2.1-2.8,6.1-3.3,8.8-1.2c2.8,2.1,3.3,6.1,1.2,8.8
			C387.8,33.7,386.6,34.5,385.3,34.9z"/>
		<path class="st15" d="M386.7,29.7l-2.3-0.9l2.5-1.7c0.1-0.1,0.2-0.2,0.2-0.4c0-0.2-0.1-0.3-0.3-0.3l-3-1.2c-0.2-0.1-0.3,0-0.4,0.1
			l-3.4,3.4c-0.1,0.1-0.1,0.2-0.1,0.3c0,0.1,0.1,0.2,0.2,0.3l1.6,1l-1.9,2.3c-0.1,0.1-0.1,0.4,0,0.5l0.1,0.1
			c0.1,0.1,0.3,0.1,0.4,0.1l6.5-2.7c0.2-0.1,0.3-0.2,0.3-0.4C387,30,386.9,29.8,386.7,29.7z M381.5,31.8l1.1-1.4
			c0.1-0.1,0.1-0.2,0.1-0.3c0-0.1-0.1-0.2-0.2-0.3l0,0l-1.6-0.9l2.9-2.8l2,0.8l-2.5,1.7c-0.1,0.1-0.2,0.2-0.2,0.4
			c0,0.2,0.1,0.3,0.3,0.3l2.1,0.8L381.5,31.8z"/>
		<path class="st15" d="M393.9,35.7l-2.5-1.9c-0.2-0.2-0.5-0.1-0.7,0.1s-0.1,0.5,0.1,0.7l2.5,1.9c0.2,0.2,0.5,0.1,0.7-0.1
			C394.2,36.2,394.1,35.9,393.9,35.7z"/>
		<path class="st15" d="M377,22.8l-2.5-1.9c-0.2-0.2-0.5-0.1-0.7,0.1s-0.1,0.5,0.1,0.7l2.5,1.9c0.2,0.2,0.5,0.1,0.7-0.1
			S377.2,23,377,22.8z"/>
		<path class="st15" d="M389.1,21.9c0.2,0.2,0.5,0.1,0.7-0.1l1.9-2.5c0.2-0.2,0.1-0.5-0.1-0.7s-0.5-0.1-0.7,0.1l-1.9,2.5
			C388.9,21.4,388.9,21.7,389.1,21.9z"/>
		<path class="st15" d="M382.2,19.8c0,0.1,0.1,0.2,0.2,0.3c0.1,0.1,0.2,0.1,0.4,0.1c0.3,0,0.5-0.3,0.4-0.6l-0.4-3.1
			c0-0.3-0.3-0.5-0.6-0.4c-0.3,0-0.5,0.3-0.4,0.6L382.2,19.8z"/>
		<path class="st15" d="M392.6,27.9c0.1,0.1,0.2,0.1,0.4,0.1l3.1-0.4c0.3,0,0.5-0.3,0.4-0.6c0-0.3-0.3-0.5-0.6-0.4l-3.1,0.4
			c-0.3,0-0.5,0.3-0.4,0.6C392.4,27.7,392.5,27.8,392.6,27.9z"/>
	</g>
	<g>
		<path class="st15" d="M68.5,117.7c-4.9,3.6-5.9,10.5-2.2,15.4c1.4,1.9,3.4,3.3,5.8,4c0,0,0,0,0.1,0h0.1c0.5,0.1,1,0.2,1.6,0.3
			c1.1,0.3,2.7,0.8,3.5,1.6l1.7,2.3l3.8,5.1c0.2,0.3,0.6,0.3,0.9,0.1l8-6c0.3-0.2,0.3-0.6,0.1-0.9l-3.8-5.1l-1.7-2.3
			c-0.6-1.1-0.6-2.7-0.5-3.9c0.1-0.5,0.1-1.1,0.2-1.6v-0.1c0-0.1,0-0.1,0-0.2c0-2.4-0.7-4.7-2.2-6.6
			C80.2,115.1,73.4,114.1,68.5,117.7z M88.6,137.4l-7,5.2l-1.2-1.6l7-5.2L88.6,137.4z M83.5,145.2l-1.2-1.5l7-5.2l1.2,1.5
			L83.5,145.2z M84.7,126.7L84.7,126.7c0,0.6-0.1,1-0.1,1.5v0.1c-0.1,1.3,0,3.2,0.7,4.6c0,0,0,0.1,0.1,0.1l1.4,1.8l-7,5.2l-1.4-1.8
			c0,0,0-0.1-0.1-0.1c-1.1-1.1-2.9-1.7-4.2-2c0,0,0,0-0.1,0c-0.5-0.1-1-0.2-1.5-0.3l0,0l0,0c-2.1-0.6-3.9-1.8-5.2-3.5
			c-3.2-4.3-2.3-10.4,2-13.6c4.3-3.2,10.4-2.3,13.6,2C84.1,122.4,84.8,124.5,84.7,126.7z"/>
		<path class="st15" d="M77.8,122.3l-2.3,3.1l-1.4-4.4c-0.1-0.2-0.3-0.4-0.5-0.4s-0.5,0.1-0.6,0.2l-3.1,3.9
			c-0.2,0.2-0.2,0.5-0.1,0.7l3.6,6.6c0.1,0.2,0.3,0.3,0.5,0.3s0.4,0,0.5-0.2l2.1-2l2.6,3.8c0.2,0.2,0.5,0.3,0.8,0.2
			c0.1,0,0.1-0.1,0.2-0.1c0.2-0.1,0.3-0.4,0.3-0.6l-1.3-10.8c0-0.3-0.2-0.5-0.5-0.5C78.2,122,77.9,122.1,77.8,122.3z M78.6,130.9
			l-1.5-2.2c-0.1-0.2-0.3-0.3-0.5-0.3s-0.3,0-0.4,0.1c0,0,0,0-0.1,0.1l-2.1,2l-3-5.5l2.1-2.6l1.4,4.4c0.1,0.2,0.3,0.4,0.5,0.4
			s0.5-0.1,0.6-0.2l2.1-2.8L78.6,130.9z"/>
		<path class="st15" d="M89.7,114.2l-3.9,2.9c-0.3,0.3-0.4,0.7-0.2,1.1c0.3,0.3,0.7,0.4,1.1,0.2l3.9-2.9c0.3-0.3,0.4-0.7,0.2-1.1
			S90,113.9,89.7,114.2z"/>
		<path class="st15" d="M63.3,133.8l-3.9,2.9c-0.3,0.3-0.4,0.7-0.2,1.1c0.3,0.3,0.7,0.4,1.1,0.2l3.9-2.9c0.3-0.3,0.4-0.7,0.2-1.1
			C64.2,133.6,63.7,133.5,63.3,133.8z"/>
		<path class="st15" d="M67.1,115.4c0.3-0.3,0.4-0.7,0.2-1.1l-2.9-3.9c-0.3-0.3-0.7-0.4-1.1-0.2c-0.3,0.3-0.4,0.7-0.2,1.1l2.9,3.9
			C66.3,115.6,66.8,115.7,67.1,115.4z"/>
		<path class="st15" d="M61.1,124.8c0.2,0,0.4,0,0.6-0.1s0.3-0.3,0.3-0.5c0.1-0.4-0.2-0.8-0.6-0.9l-4.8-0.7
			c-0.4-0.1-0.8,0.2-0.9,0.6c-0.1,0.4,0.2,0.8,0.6,0.9L61.1,124.8z"/>
		<path class="st15" d="M77.5,112.8c0.2-0.1,0.3-0.3,0.3-0.5l0.7-4.8c0.1-0.4-0.2-0.8-0.6-0.9c-0.4-0.1-0.8,0.2-0.9,0.6l-0.7,4.8
			c-0.1,0.4,0.2,0.8,0.6,0.9C77.2,113,77.4,112.9,77.5,112.8z"/>
	</g>
	<circle class="st3" cx="279.4" cy="156.5" r="0.9"/>
	<circle class="st3" cx="275.5" cy="161.3" r="0.9"/>
	<circle class="st3" cx="283.7" cy="162" r="0.9"/>
	<circle class="st3" cx="343.2" cy="156.3" r="0.9"/>
	<circle class="st3" cx="347" cy="161.1" r="0.9"/>
	<circle class="st3" cx="338.9" cy="161.9" r="0.9"/>
	<g>
		<path class="st15" d="M171.4,3.2L159.3,11c-1,0.6-1.3,2-0.7,3l14.6,22.7c0.6,1,2,1.2,3,0.6l12.1-7.8c1-0.6,1.3-2,0.7-3L174.4,3.8
			C173.7,2.8,172.4,2.5,171.4,3.2z M164.3,9.6l3.9-2.5c0.1-0.1,0.3,0,0.4,0.1c0.1,0.1,0,0.3-0.1,0.4l-3.9,2.5
			c-0.1,0.1-0.3,0-0.4-0.1C164.1,9.8,164.1,9.6,164.3,9.6z M181.7,32.4c-0.5,0.3-1.2,0.2-1.5-0.3s-0.2-1.2,0.3-1.5s1.2-0.2,1.5,0.3
			S182.2,32.1,181.7,32.4z M186.7,25.8l-13.1,8.5l-13-20.2l13.2-8.5L186.7,25.8z M176.3,24.1c-1.8,1.1-3.8,1.5-5.8,1.1
			c-0.3-0.1-0.5-0.3-0.4-0.6c0.1-0.3,0.4-0.5,0.6-0.4c1.7,0.4,3.5,0,5-1s2.6-2.4,3-4.2c0.1-0.3,0.4-0.5,0.6-0.4
			c0.3,0.1,0.5,0.3,0.4,0.6C179.3,21.2,178.1,23,176.3,24.1z M170.6,17.5c0.4,0.6,0.2,1.4-0.4,1.8c-0.6,0.4-1.4,0.2-1.8-0.4
			c-0.4-0.6-0.2-1.4,0.4-1.8C169.4,16.7,170.2,16.9,170.6,17.5z M174.9,14.7c0.4,0.6,0.2,1.4-0.4,1.8c-0.6,0.4-1.4,0.2-1.8-0.4
			c-0.4-0.6-0.2-1.4,0.4-1.8C173.7,14,174.5,14.1,174.9,14.7z"/>
	</g>
</g>
<path class="st16" d="M315.3,288.6c0-2.7,0.9-5.3,2.4-7.3c-1.9-0.8-3.9-1.2-6.1-1.2c-8.9,0-16.1,7.2-16.1,16.1s7.2,16.1,16.1,16.1
	c7.2,0,13.3-4.8,15.4-11.3C320.4,300.6,315.3,295.2,315.3,288.6z"/>
</svg>
